<svg width="504" height="110" viewBox="0 0 504 110" fill="none" xmlns="http://www.w3.org/2000/svg">
<rect y="15" width="100" height="20" fill="#4E85D9"/>
<rect y="45" width="50" height="20" fill="#4E85D9"/>
<rect y="75" width="75" height="20" fill="#4E85D9"/>
<path d="M164.922 50.9688C163.797 48.5 161.594 47.2656 158.312 47.2656C154.5 47.2656 151.938 48.5 150.625 50.9688C149.906 52.375 149.547 54.4688 149.547 57.25V88H136V37H148.984V44.4531C150.641 41.7969 152.203 39.9062 153.672 38.7812C156.266 36.7812 159.625 35.7812 163.75 35.7812C167.656 35.7812 170.812 36.6406 173.219 38.3594C175.156 39.9531 176.625 42 177.625 44.5C179.375 41.5 181.547 39.2969 184.141 37.8906C186.891 36.4844 189.953 35.7812 193.328 35.7812C195.578 35.7812 197.797 36.2188 199.984 37.0938C202.172 37.9688 204.156 39.5 205.938 41.6875C207.375 43.4688 208.344 45.6562 208.844 48.25C209.156 49.9688 209.312 52.4844 209.312 55.7969L209.219 88H195.531V55.4688C195.531 53.5312 195.219 51.9375 194.594 50.6875C193.406 48.3125 191.219 47.125 188.031 47.125C184.344 47.125 181.797 48.6562 180.391 51.7188C179.672 53.3438 179.312 55.2969 179.312 57.5781V88H165.859V57.5781C165.859 54.5469 165.547 52.3438 164.922 50.9688ZM261.85 43.375C266.162 48.7812 268.319 55.1719 268.319 62.5469C268.319 70.0469 266.162 76.4688 261.85 81.8125C257.537 87.125 250.991 89.7812 242.209 89.7812C233.428 89.7812 226.881 87.125 222.569 81.8125C218.256 76.4688 216.1 70.0469 216.1 62.5469C216.1 55.1719 218.256 48.7812 222.569 43.375C226.881 37.9688 233.428 35.2656 242.209 35.2656C250.991 35.2656 257.537 37.9688 261.85 43.375ZM242.162 46.5625C238.256 46.5625 235.241 47.9531 233.116 50.7344C231.022 53.4844 229.975 57.4219 229.975 62.5469C229.975 67.6719 231.022 71.625 233.116 74.4062C235.241 77.1875 238.256 78.5781 242.162 78.5781C246.069 78.5781 249.069 77.1875 251.162 74.4062C253.256 71.625 254.303 67.6719 254.303 62.5469C254.303 57.4219 253.256 53.4844 251.162 50.7344C249.069 47.9531 246.069 46.5625 242.162 46.5625ZM319.731 55.2344H306.044C305.794 53.3281 305.153 51.6094 304.122 50.0781C302.622 48.0156 300.294 46.9844 297.137 46.9844C292.637 46.9844 289.559 49.2188 287.903 53.6875C287.028 56.0625 286.591 59.2188 286.591 63.1562C286.591 66.9062 287.028 69.9219 287.903 72.2031C289.497 76.4531 292.497 78.5781 296.903 78.5781C300.028 78.5781 302.247 77.7344 303.559 76.0469C304.872 74.3594 305.669 72.1719 305.95 69.4844H319.591C319.278 73.5469 317.809 77.3906 315.184 81.0156C310.997 86.8594 304.794 89.7812 296.575 89.7812C288.356 89.7812 282.309 87.3438 278.434 82.4688C274.559 77.5938 272.622 71.2656 272.622 63.4844C272.622 54.7031 274.762 47.875 279.044 43C283.325 38.125 289.231 35.6875 296.762 35.6875C303.169 35.6875 308.403 37.125 312.466 40C316.559 42.875 318.981 47.9531 319.731 55.2344ZM373.441 88H357.316L345.081 66.1562L339.55 71.9219V88H326.425V19.1406H339.55V56.3594L356.191 37.1406H372.738L354.878 56.6875L373.441 88ZM377.884 18.9062H391.244V88H377.884V18.9062ZM415.656 36.9062V88H402.109V36.9062H415.656ZM415.656 18.4844V30.8125H402.109V18.4844H415.656ZM461.444 39.25C465.444 41.8125 467.741 46.2188 468.334 52.4688H454.975C454.788 50.75 454.303 49.3906 453.522 48.3906C452.053 46.5781 449.553 45.6719 446.022 45.6719C443.116 45.6719 441.038 46.125 439.788 47.0312C438.569 47.9375 437.959 49 437.959 50.2188C437.959 51.75 438.616 52.8594 439.928 53.5469C441.241 54.2656 445.881 55.5 453.85 57.25C459.163 58.5 463.147 60.3906 465.803 62.9219C468.428 65.4844 469.741 68.6875 469.741 72.5312C469.741 77.5938 467.85 81.7344 464.069 84.9531C460.319 88.1406 454.506 89.7344 446.631 89.7344C438.6 89.7344 432.663 88.0469 428.819 84.6719C425.006 81.2656 423.1 76.9375 423.1 71.6875H436.647C436.928 74.0625 437.538 75.75 438.475 76.75C440.131 78.5312 443.194 79.4219 447.663 79.4219C450.288 79.4219 452.366 79.0312 453.897 78.25C455.459 77.4688 456.241 76.2969 456.241 74.7344C456.241 73.2344 455.616 72.0938 454.366 71.3125C453.116 70.5312 448.475 69.1875 440.444 67.2812C434.663 65.8438 430.584 64.0469 428.209 61.8906C425.834 59.7656 424.647 56.7031 424.647 52.7031C424.647 47.9844 426.491 43.9375 430.178 40.5625C433.897 37.1562 439.116 35.4531 445.834 35.4531C452.209 35.4531 457.413 36.7188 461.444 39.25ZM500.669 78.4844V88.4688L494.341 88.7031C488.028 88.9219 483.716 87.8281 481.403 85.4219C479.903 83.8906 479.153 81.5312 479.153 78.3438V46.8906H472.028V37.375H479.153V23.125H492.372V37.375H500.669V46.8906H492.372V73.8906C492.372 75.9844 492.638 77.2969 493.169 77.8281C493.7 78.3281 495.325 78.5781 498.044 78.5781C498.45 78.5781 498.872 78.5781 499.309 78.5781C499.778 78.5469 500.231 78.5156 500.669 78.4844Z" fill="black"/>
</svg>
